:version 1.10
:name ASF
:units
  mass 1
  length 1
  angle deg
:documentation
  ASF file generated by Kaydara
:root
  axis xyz
  order  tx ty tz rx ry rz
  position 0 0 0
  orientation 0 0 0
:bonedata
  begin
    id 1
    name RightUpLegDummy
    direction -0.718183 -0.695806 0.00816078
    length 4.904
    axis 0 0 0 xyz
  end
  begin
    id 2
    name RightUpLeg
    direction 3.53373e-006 -0.995788 0.0916898
    length 17.4976
    axis -3.49089 -0.000906625 0.000286804 xyz
    dof rx ry rz
  end
  begin
    id 3
    name RightLeg
    direction 0.00371092 -0.995096 -0.0988419
    length 16.5821
    axis 3.68512 0.0193738 -0.131023 xyz
    dof rx ry rz
  end
  begin
    id 4
    name RightFoot
    direction 0.00079151 -0.46099 0.887405
    length 3.77069
    axis 4.81691e-005 -0.120479 -0.188788 xyz
    dof rx ry rz
  end
  begin
    id 5
    name RightToes
    direction 0 0 0
    length 0
    axis 0 0 0 xyz
    dof rx ry rz
  end
  begin
    id 6
    name SpineDummy
    direction 8.3039e-015 1 4.57515e-016
    length 4.6813
    axis 0 0 0 xyz
  end
  begin
    id 7
    name Spine
    direction -3.15643e-008 0.999988 0.00495137
    length 10.1015
    axis -0.001389 0.000121418 2.40972e-006 xyz
    dof rx ry rz
  end
  begin
    id 8
    name Spine1
    direction 0 0 0
    length 0
    axis -0.001389 0.000121451 1.30017e-006 xyz
    dof rx ry rz
  end
  begin
    id 9
    name HEadDummy
    direction -1.99912e-008 0.999999 0.00127422
    length 3.43865
    axis -0.001389 0.000121451 1.30017e-006 xyz
  end
  begin
    id 10
    name HEad
    direction 0 0 0
    length 0
    axis 0 0 0 xyz
    dof rx ry rz
  end
  begin
    id 11
    name LeftShoulder1Dummy
    direction 0.998891 -0.0402509 -0.0244456
    length 3.5433
    axis -0.001389 0.000121451 1.30017e-006 xyz
  end
  begin
    id 12
    name LeftShoulder1
    direction 0.99951 -0.000327763 0.0313091
    length 4.05031
    axis -0.001389 0.000121451 1.30017e-006 xyz
    dof rx ry rz
  end
  begin
    id 13
    name LeftArm
    direction 0.998561 -0.00100056 -0.0536182
    length 10.3537
    axis -23.1894 0.134784 0.967509 xyz
    dof rx ry rz
  end
  begin
    id 14
    name LeftForeArm
    direction 0.998903 0.00866432 0.046012
    length 8.70632
    axis -9.91835 -0.06569 -0.177794 xyz
    dof rx ry rz
  end
  begin
    id 15
    name LeftHand
    direction 0 0 0
    length 0
    axis 0 0 0 xyz
    dof rx ry rz
  end
  begin
    id 16
    name RightShoulderDummy
    direction -0.998891 -0.0402509 -0.0244414
    length 3.5433
    axis -0.001389 0.000121451 1.30017e-006 xyz
  end
  begin
    id 17
    name RightShoulder
    direction -0.99951 -0.000327807 0.0313133
    length 4.05031
    axis 0.215806 0.000203643 -0.0068026 xyz
    dof rx ry rz
  end
  begin
    id 18
    name RightArm
    direction -0.998573 -0.000999564 -0.053403
    length 10.3947
    axis -23.2009 -0.134239 -0.964101 xyz
    dof rx ry rz
  end
  begin
    id 19
    name RightForeArm
    direction -0.998898 0.00868028 0.0461306
    length 8.68355
    axis -9.92322 0.0658061 0.178868 xyz
    dof rx ry rz
  end
  begin
    id 20
    name RightHand
    direction 0 0 0
    length 0
    axis 0 0 0 xyz
    dof rx ry rz
  end
  begin
    id 21
    name LeftUpLegDummy
    direction 0.718183 -0.695806 0.00816078
    length 4.904
    axis 0 0 0 xyz
  end
  begin
    id 22
    name LeftUpLeg
    direction -6.81752e-006 -0.995793 0.0916337
    length 17.4976
    axis -3.48766 0.00143442 -0.000524262 xyz
    dof rx ry rz
  end
  begin
    id 23
    name LeftLeg
    direction -0.00601358 -0.995091 -0.0987824
    length 16.5821
    axis 3.68178 -0.00654042 -0.000285133 xyz
    dof rx ry rz
  end
  begin
    id 24
    name LeftFoot
    direction -0.00417578 -0.460984 0.887399
    length 3.77069
    axis 1.87233e-006 4.66016e-005 -8.6538e-006 xyz
    dof rx ry rz
  end
  begin
    id 25
    name LeftToes
    direction 0 0 0
    length 0
    axis 0 0 0 xyz
    dof rx ry rz
  end
:hierarchy
  begin
    root RightUpLegDummy SpineDummy LeftUpLegDummy
    RightUpLegDummy RightUpLeg
    RightUpLeg RightLeg
    RightLeg RightFoot
    RightFoot RightToes
    SpineDummy Spine
    Spine Spine1
    Spine1 HEadDummy LeftShoulder1Dummy RightShoulderDummy
    HEadDummy HEad
    LeftShoulder1Dummy LeftShoulder1
    LeftShoulder1 LeftArm
    LeftArm LeftForeArm
    LeftForeArm LeftHand
    RightShoulderDummy RightShoulder
    RightShoulder RightArm
    RightArm RightForeArm
    RightForeArm RightHand
    LeftUpLegDummy LeftUpLeg
    LeftUpLeg LeftLeg
    LeftLeg LeftFoot
    LeftFoot LeftToes
  end

:SAMPLES-PER-SECOND 30
:FULLY-SPECIFIED
:DEGREES
1
root  75.4104 40.4143 -0.446625 -177.532 -86.4437 175.558
RightUpLeg  2.63012 -8.02263 -5.20207
RightLeg  4.52243 -3.69892 3.30029
RightFoot  -3.27339 0.0429013 -1.01306
RightToes  0.000481921 0.542163 -0.142578
Spine  -3.93678 0.412822 -1.25804
Spine1  7.12495 0.196915 1.39518
HEad  6.65797 0.4841 1.84253
LeftShoulder1  1.11643 -2.5252 -11.2087
LeftArm  -20.518 7.75237 -4.53969
LeftForeArm  17.1381 -0.247663 -0.16226
LeftHand  -0.25398 0.0180481 5.50724
RightShoulder  0.545507 0.143981 7.39588
RightArm  -28.2748 -4.12127 3.12265
RightForeArm  18.2 2.55016 -0.4818
RightHand  -0.769896 6.13073 -8.15573
LeftUpLeg  4.50682 5.3097 3.10225
LeftLeg  2.87463 13.0382 -3.27436
LeftFoot  -4.78344 0.0390253 -0.0966752
LeftToes  1.06246e-005 4.65868e-005 -8.65514e-006
2
root  75.4107 40.4143 -0.443721 -177.579 -86.4072 175.58
RightUpLeg  2.64123 -8.03621 -5.21332
RightLeg  4.5479 -3.65817 3.30365
RightFoot  -3.27145 0.0449777 -1.04532
RightToes  0.000481921 0.542163 -0.142578
Spine  -3.65893 0.473914 -1.2406
Spine1  6.77844 0.267444 1.37313
HEad  6.77708 0.414965 1.82933
LeftShoulder1  1.11651 -2.58477 -11.0674
LeftArm  -20.54 7.76646 -4.66003
LeftForeArm  17.2756 -0.236971 -0.148324
LeftHand  -0.25398 0.0180481 5.50724
RightShoulder  0.537012 0.0551487 7.54509
RightArm  -28.1144 -4.13135 2.96774
RightForeArm  18.333 2.64933 -0.417495
RightHand  -0.789383 6.4867 -8.12392
LeftUpLeg  4.55343 5.31407 3.107
LeftLeg  2.84586 13.0552 -3.28959
LeftFoot  -4.78213 0.0410067 -0.127467
LeftToes  1.06246e-005 4.65868e-005 -8.65514e-006
3
root  75.4126 40.4143 -0.439669 -177.692 -86.3375 175.669
RightUpLeg  2.64067 -8.03669 -5.21569
RightLeg  4.57387 -3.59796 3.29768
RightFoot  -3.2627 0.0466729 -1.07167
RightToes  0.000481921 0.542163 -0.142578
Spine  -3.4691 0.523625 -1.21761
Spine1  6.57455 0.314766 1.38787
HEad  6.89168 0.492246 1.81344
LeftShoulder1  1.11773 -2.60556 -10.9999
LeftArm  -20.6626 7.72587 -4.75352
LeftForeArm  17.3854 -0.161297 -0.0875134
LeftHand  -0.25398 0.0180481 5.50724
RightShoulder  0.539109 0.0584274 7.59632
RightArm  -27.9554 -4.13274 2.88419
RightForeArm  18.4795 2.74353 -0.349305
RightHand  -0.825792 6.98284 -8.16848
LeftUpLeg  4.59871 5.33657 3.11971
LeftLeg  2.82097 13.0961 -3.32027
LeftFoot  -4.77646 0.0411932 -0.130365
LeftToes  1.06246e-005 4.65868e-005 -8.65514e-006
4
root  75.4175 40.4143 -0.435962 -177.765 -86.288 175.749
RightUpLeg  2.60534 -8.02207 -5.20674
RightLeg  4.58941 -3.56393 3.28418
RightFoot  -3.25507 0.0465355 -1.06953
RightToes  0.000481921 0.542163 -0.142578
Spine  -3.62649 0.502949 -1.19432
Spine1  6.85875 0.271921 1.45806
HEad  6.81544 0.666044 1.73984
LeftShoulder1  1.12276 -2.5528 -11.1909
LeftArm  -20.8063 7.61088 -4.63397
LeftForeArm  17.2771 -0.0631538 -0.0249399
LeftHand  -0.25398 0.0180481 5.50724
RightShoulder  0.548637 0.166012 7.39042
RightArm  -27.9964 -4.08756 3.0557
RightForeArm  18.6722 2.75778 -0.355291
RightHand  -0.846996 7.23931 -8.21264
LeftUpLeg  4.58816 5.35594 3.12585
LeftLeg  2.81897 13.1334 -3.34233
LeftFoot  -4.76958 0.0390902 -0.0976837
LeftToes  1.06246e-005 4.65868e-005 -8.65514e-006
5
root  75.4238 40.4143 -0.432429 -177.643 -86.2941 175.663
RightUpLeg  2.54704 -8.01917 -5.20832
RightLeg  4.60459 -3.57303 3.27817
RightFoot  -3.25553 0.0459192 -1.05995
RightToes  0.000481921 0.542163 -0.142578
Spine  -3.84819 0.46715 -1.15213
Spine1  7.22396 0.223466 1.48331
HEad  6.67761 0.632554 1.64022
LeftShoulder1  1.12758 -2.5293 -11.3897
LeftArm  -20.8041 7.50421 -4.46092
LeftForeArm  17.0434 -0.0253081 -0.0386628
LeftHand  -0.25398 0.0180481 5.50724
RightShoulder  0.544671 0.18401 7.18778
RightArm  -28.1099 -4.00951 3.27319
RightForeArm  18.9943 2.75868 -0.392751
RightHand  -0.831449 7.27522 -8.04963
LeftUpLeg  4.52779 5.34844 3.11075
LeftLeg  2.8353 13.1381 -3.34116
LeftFoot  -4.76333 0.0389265 -0.0951389
LeftToes  1.06246e-005 4.65868e-005 -8.65514e-006
6
root  75.4289 40.4143 -0.429807 -177.381 -86.3298 175.438
RightUpLeg  2.49598 -8.02963 -5.22112
RightLeg  4.6199 -3.60904 3.27895
RightFoot  -3.25947 0.0460516 -1.06201
RightToes  0.000481921 0.542163 -0.142578
Spine  -3.8718 0.471322 -1.09959
Spine1  7.29264 0.238027 1.43046
HEad  6.69385 0.391965 1.60187
LeftShoulder1  1.12706 -2.55817 -11.3439
LeftArm  -20.675 7.44894 -4.47747
LeftForeArm  16.9528 -0.0545868 -0.11356
LeftHand  -0.25398 0.0180481 5.50724
RightShoulder  0.534242 0.1067 7.21827
RightArm  -28.1037 -3.95944 3.28858
RightForeArm  19.1609 2.78041 -0.387498
RightHand  -0.796257 7.20576 -7.76767
LeftUpLeg  4.46011 5.32658 3.08506
LeftLeg  2.86295 13.1206 -3.32763
LeftFoot  -4.75904 0.0415558 -0.136001
LeftToes  1.06246e-005 4.65868e-005 -8.65514e-006
7
root  75.4314 40.4143 -0.428809 -177.177 -86.3536 175.254
RightUpLeg  2.46783 -8.03245 -5.22713
RightLeg  4.62995 -3.64268 3.27453
RightFoot  -3.26417 0.046778 -1.0733
RightToes  0.000481921 0.542163 -0.142578
Spine  -3.81158 0.477548 -1.09427
Spine1  7.24181 0.241894 1.44007
HEad  6.81486 0.354122 1.59651
LeftShoulder1  1.11635 -2.52916 -11.244
LeftArm  -20.623 7.39353 -4.60604
LeftForeArm  17.1292 -0.0895825 -0.14861
LeftHand  -0.25398 0.0180481 5.50724
RightShoulder  0.539683 0.130287 7.27895
RightArm  -28.0978 -3.95305 3.22749
RightForeArm  19.0481 2.74649 -0.387869
RightHand  -0.782329 7.07578 -7.71189
LeftUpLeg  4.4187 5.31649 3.06933
LeftLeg  2.88875 13.1104 -3.32051
LeftFoot  -4.76177 0.0428706 -0.156433
LeftToes  1.06246e-005 4.65868e-005 -8.65514e-006
8
root  75.4321 40.4143 -0.427747 -177.086 -86.371 175.171
RightUpLeg  2.45926 -8.02866 -5.22719
RightLeg  4.63535 -3.6604 3.26819
RightFoot  -3.26691 0.0475481 -1.08527
RightToes  0.000481921 0.542163 -0.142578
Spine  -3.84218 0.432055 -1.14526
Spine1  7.34665 0.157939 1.5899
HEad  6.84523 0.615086 1.55708
LeftShoulder1  1.10254 -2.41301 -11.3844
LeftArm  -20.7135 7.31587 -4.59164
LeftForeArm  17.3956 -0.10052 -0.110401
LeftHand  -0.25398 0.0180481 5.50724
RightShoulder  0.554807 0.275355 7.08989
RightArm  -28.3192 -3.91957 3.37649
RightForeArm  18.9841 2.61225 -0.482355
RightHand  -0.803076 6.9542 -7.97353
LeftUpLeg  4.40502 5.31624 3.06393
LeftLeg  2.89692 13.1046 -3.32101
LeftFoot  -4.77232 0.0409987 -0.127342
LeftToes  1.06246e-005 4.65868e-005 -8.65514e-006
9
root  75.4318 40.4146 -0.426825 -177.024 -86.4032 175.114
RightUpLeg  2.46061 -8.0356 -5.23474
RightLeg  4.63471 -3.66978 3.26749
RightFoot  -3.26469 0.0479972 -1.09225
RightToes  0.000481921 0.542163 -0.142578
Spine  -3.88362 0.366614 -1.16347
Spine1  7.49182 0.0552298 1.7226
HEad  6.69016 0.697522 1.58674
LeftShoulder1  1.10419 -2.34407 -11.6545
LeftArm  -20.757 7.28929 -4.41603
LeftForeArm  17.4969 -0.119216 -0.0864706
LeftHand  -0.25398 0.0180481 5.50724
RightShoulder  0.554932 0.34761 6.78316
RightArm  -28.6364 -3.81808 3.70395
RightForeArm  18.8596 2.47596 -0.589719
RightHand  -0.824353 6.79301 -8.2704
LeftUpLeg  4.39973 5.30638 3.05525
LeftLeg  2.88807 13.0865 -3.31672
LeftFoot  -4.77924 0.0388994 -0.0947178
LeftToes  1.06246e-005 4.65868e-005 -8.65514e-006
10
root  75.4309 40.415 -0.426558 -176.934 -86.4316 175.041
RightUpLeg  2.45307 -8.04684 -5.24441
RightLeg  4.62323 -3.68004 3.26963
RightFoot  -3.254 0.0476551 -1.08693
RightToes  0.000481921 0.542163 -0.142578
Spine  -3.83308 0.343687 -1.08436
Spine1  7.48569 0.0398321 1.66986
HEad  6.46332 0.43703 1.73703
LeftShoulder1  1.11862 -2.39712 -11.7389
LeftArm  -20.6154 7.36165 -4.27903
LeftForeArm  17.4101 -0.185062 -0.146415
LeftHand  -0.25398 0.0180481 5.50724
RightShoulder  0.545631 0.305662 6.68817
RightArm  -28.6921 -3.7287 3.90885
RightForeArm  17.914 2.44596 -0.534347
RightHand  -0.808255 6.33724 -8.40336
LeftUpLeg  4.37954 5.28547 3.03882
LeftLeg  2.87963 13.075 -3.30407
LeftFoot  -4.77043 0.0387485 -0.0923723
LeftToes  1.06246e-005 4.65868e-005 -8.65514e-006
11
root  75.4295 40.4155 -0.427562 -176.737 -86.4387 174.888
RightUpLeg  2.41394 -8.04711 -5.24597
RightLeg  4.60803 -3.69531 3.27352
RightFoot  -3.24547 0.0465236 -1.06935
RightToes  0.000481921 0.542163 -0.142578
Spine  -3.79961 0.351379 -0.977723
Spine1  7.43309 0.0836636 1.50631
HEad  6.33198 0.118452 1.91049
LeftShoulder1  1.12461 -2.4646 -11.615
LeftArm  -20.4262 7.46626 -4.26619
LeftForeArm  17.309 -0.29597 -0.236711
LeftHand  -0.25398 0.0180481 5.50724
RightShoulder  0.553489 0.328612 6.82125
RightArm  -28.4541 -3.75629 3.87268
RightForeArm  16.1706 2.50145 -0.332011
RightHand  -0.765614 5.59361 -8.47144
LeftUpLeg  4.32953 5.26621 3.0182
LeftLeg  2.87919 13.0913 -3.29432
LeftFoot  -4.74859 0.0396024 -0.105643
LeftToes  1.06246e-005 4.65868e-005 -8.65514e-006
12
root  75.426 40.4159 -0.431123 -176.393 -86.4583 174.609
RightUpLeg  2.355 -8.04474 -5.24581
RightLeg  4.59874 -3.72814 3.27913
RightFoot  -3.25509 0.0456936 -1.05645
RightToes  0.000481921 0.542163 -0.142578
Spine  -3.88533 0.335754 -0.9452
Spine1  7.47961 0.0880664 1.41793
HEad  6.3289 0.0401582 2.0091
LeftShoulder1  1.11466 -2.44508 -11.4985
LeftArm  -20.3956 7.51005 -4.30325
LeftForeArm  17.3222 -0.396099 -0.263397
LeftHand  -0.25398 0.0180481 5.50724
RightShoulder  0.578236 0.473318 6.93173
RightArm  -28.2224 -3.88543 3.76717
RightForeArm  14.8896 2.56574 -0.177485
RightHand  -0.737354 5.05793 -8.5523
LeftUpLeg  4.26265 5.25443 3.00042
LeftLeg  2.87691 13.0972 -3.29695
LeftFoot  -4.72744 0.0407301 -0.123168
LeftToes  1.06246e-005 4.65868e-005 -8.65514e-006
